HIERARCHY
ROOT Hips
{
    OFFSET   0.000000   0.000000   0.000000
    CHANNELS 6 Xposition Yposition Zposition Zrotation Xrotation Yrotation
    JOINT Chest
    {
        OFFSET   0.000000   8.007240   0.000000
        CHANNELS 3 Zrotation Xrotation Yrotation
        JOINT Chest2
        {
            OFFSET   0.000000  22.077100   0.000000
            CHANNELS 3 Zrotation Xrotation Yrotation
            JOINT Neck
            {
                OFFSET   0.000000  23.254800   0.000000
                CHANNELS 3 Zrotation Xrotation Yrotation
                JOINT Head
                {
                    OFFSET   0.000000  14.370000   1.956600
                    CHANNELS 3 Zrotation Xrotation Yrotation
                    End Site
                    {
                        OFFSET   0.000000  19.566000   0.000000
                    }
                }
            }
            JOINT LeftCollar
            {
                OFFSET   3.911900  19.017000  -0.467064
                CHANNELS 3 Zrotation Xrotation Yrotation
                JOINT LeftShoulder
                {
                    OFFSET  10.383700   0.000000   0.000000
                    CHANNELS 3 Zrotation Xrotation Yrotation
                    JOINT LeftElbow
                    {
                        OFFSET  26.662100   0.001476   0.000517
                        CHANNELS 3 Zrotation Xrotation Yrotation
                        JOINT LeftWrist
                        {
                            OFFSET  28.869000  -0.000025  -0.000106
                            CHANNELS 3 Zrotation Xrotation Yrotation
                            JOINT LeftFinger0
                            {
                                OFFSET   2.044660  -2.323460   3.252850
                                CHANNELS 3 Zrotation Xrotation Yrotation
                                JOINT LeftFinger01
                                {
                                    OFFSET   3.088130   0.000000   0.000000
                                    CHANNELS 3 Zrotation Xrotation Yrotation
                                    JOINT LeftFinger02
                                    {
                                        OFFSET   2.639460   0.000000   0.000000
                                        CHANNELS 3 Zrotation Xrotation Yrotation
                                        End Site
                                        {
                                            OFFSET   2.582190   0.000000   0.000000
                                        }
                                    }
                                }
                            }
                            JOINT LeftFinger1
                            {
                                OFFSET   8.364480   0.000000   3.252850
                                CHANNELS 3 Zrotation Xrotation Yrotation
                                JOINT LeftFinger11
                                {
                                    OFFSET   4.646930   0.000000   0.000000
                                    CHANNELS 3 Zrotation Xrotation Yrotation
                                    JOINT LeftFinger12
                                    {
                                        OFFSET   2.323460   0.000000   0.000000
                                        CHANNELS 3 Zrotation Xrotation Yrotation
                                        End Site
                                        {
                                            OFFSET   2.273050   0.000000   0.000000
                                        }
                                    }
                                }
                            }
                            JOINT LeftFinger2
                            {
                                OFFSET   8.364490   0.000015   1.078090
                                CHANNELS 3 Zrotation Xrotation Yrotation
                                JOINT LeftFinger21
                                {
                                    OFFSET   5.111620   0.000000   0.000000
                                    CHANNELS 3 Zrotation Xrotation Yrotation
                                    JOINT LeftFinger22
                                    {
                                        OFFSET   2.788160   0.000016   0.000000
                                        CHANNELS 3 Zrotation Xrotation Yrotation
                                        End Site
                                        {
                                            OFFSET   2.727660   0.000000   0.000000
                                        }
                                    }
                                }
                            }
                            JOINT LeftFinger3
                            {
                                OFFSET   7.899780   0.000017  -1.078090
                                CHANNELS 3 Zrotation Xrotation Yrotation
                                JOINT LeftFinger31
                                {
                                    OFFSET   4.646930   0.000000   0.000000
                                    CHANNELS 3 Zrotation Xrotation Yrotation
                                    JOINT LeftFinger32
                                    {
                                        OFFSET   2.323470   0.000000   0.000000
                                        CHANNELS 3 Zrotation Xrotation Yrotation
                                        End Site
                                        {
                                            OFFSET   2.273050   0.000000   0.000000
                                        }
                                    }
                                }
                            }
                            JOINT LeftFinger4
                            {
                                OFFSET   7.435090   0.000000  -3.252850
                                CHANNELS 3 Zrotation Xrotation Yrotation
                                JOINT LeftFinger41
                                {
                                    OFFSET   3.717550   0.000000   0.000000
                                    CHANNELS 3 Zrotation Xrotation Yrotation
                                    JOINT LeftFinger42
                                    {
                                        OFFSET   1.858770   0.000000   0.000000
                                        CHANNELS 3 Zrotation Xrotation Yrotation
                                        End Site
                                        {
                                            OFFSET   1.818440   0.000000   0.000000
                                        }
                                    }
                                }
                            }
                        }
                    }
                }
            }
            JOINT RightCollar
            {
                OFFSET  -3.911900  19.017000  -0.467063
                CHANNELS 3 Zrotation Xrotation Yrotation
                JOINT RightShoulder
                {
                    OFFSET -10.383700   0.000019   0.000000
                    CHANNELS 3 Zrotation Xrotation Yrotation
                    JOINT RightElbow
                    {
                        OFFSET -26.662100   0.001175   0.000102
                        CHANNELS 3 Zrotation Xrotation Yrotation
                        JOINT RightWrist
                        {
                            OFFSET -28.869000   0.000016  -0.000079
                            CHANNELS 3 Zrotation Xrotation Yrotation
                            JOINT RightFinger0
                            {
                                OFFSET  -2.044660  -2.323490   3.252850
                                CHANNELS 3 Zrotation Xrotation Yrotation
                                JOINT RightFinger01
                                {
                                    OFFSET  -3.088140   0.000000   0.000000
                                    CHANNELS 3 Zrotation Xrotation Yrotation
                                    JOINT RightFinger02
                                    {
                                        OFFSET  -2.639460   0.000000   0.000000
                                        CHANNELS 3 Zrotation Xrotation Yrotation
                                        End Site
                                        {
                                            OFFSET  -2.582190   0.000000   0.000000
                                        }
                                    }
                                }
                            }
                            JOINT RightFinger1
                            {
                                OFFSET  -8.364480   0.000000   3.252850
                                CHANNELS 3 Zrotation Xrotation Yrotation
                                JOINT RightFinger11
                                {
                                    OFFSET  -4.646930   0.000000   0.000000
                                    CHANNELS 3 Zrotation Xrotation Yrotation
                                    JOINT RightFinger12
                                    {
                                        OFFSET  -2.323470   0.000000   0.000000
                                        CHANNELS 3 Zrotation Xrotation Yrotation
                                        End Site
                                        {
                                            OFFSET  -2.273050   0.000000   0.000000
                                        }
                                    }
                                }
                            }
                            JOINT RightFinger2
                            {
                                OFFSET  -8.364480   0.000000   1.078090
                                CHANNELS 3 Zrotation Xrotation Yrotation
                                JOINT RightFinger21
                                {
                                    OFFSET  -5.111620   0.000000   0.000000
                                    CHANNELS 3 Zrotation Xrotation Yrotation
                                    JOINT RightFinger22
                                    {
                                        OFFSET  -2.788160   0.000000   0.000000
                                        CHANNELS 3 Zrotation Xrotation Yrotation
                                        End Site
                                        {
                                            OFFSET  -2.727660   0.000000   0.000000
                                        }
                                    }
                                }
                            }
                            JOINT RightFinger3
                            {
                                OFFSET  -7.899780   0.000000  -1.078090
                                CHANNELS 3 Zrotation Xrotation Yrotation
                                JOINT RightFinger31
                                {
                                    OFFSET  -4.646930   0.000000   0.000000
                                    CHANNELS 3 Zrotation Xrotation Yrotation
                                    JOINT RightFinger32
                                    {
                                        OFFSET  -2.323470   0.000000   0.000000
                                        CHANNELS 3 Zrotation Xrotation Yrotation
                                        End Site
                                        {
                                            OFFSET  -2.273050   0.000000   0.000000
                                        }
                                    }
                                }
                            }
                            JOINT RightFinger4
                            {
                                OFFSET  -7.435090   0.000000  -3.252850
                                CHANNELS 3 Zrotation Xrotation Yrotation
                                JOINT RightFinger41
                                {
                                    OFFSET  -3.717550   0.000000   0.000000
                                    CHANNELS 3 Zrotation Xrotation Yrotation
                                    JOINT RightFinger42
                                    {
                                        OFFSET  -1.858770   0.000000   0.000000
                                        CHANNELS 3 Zrotation Xrotation Yrotation
                                        End Site
                                        {
                                            OFFSET  -1.818440   0.000000   0.000000
                                        }
                                    }
                                }
                            }
                        }
                    }
                }
            }
        }
    }
    JOINT LeftHip
    {
        OFFSET   9.783040   0.000000   0.000000
        CHANNELS 3 Zrotation Xrotation Yrotation
        JOINT LeftKnee
        {
            OFFSET   0.000032 -41.789100  -0.002222
            CHANNELS 3 Zrotation Xrotation Yrotation
            JOINT LeftAnkle
            {
                OFFSET   0.000087 -41.133200  -0.000135
                CHANNELS 3 Zrotation Xrotation Yrotation
                JOINT LeftToe
                {
                    OFFSET   0.000000  -6.358960  14.674500
                    CHANNELS 3 Zrotation Xrotation Yrotation
                    End Site
                    {
                        OFFSET   0.000000   0.000000   3.913200
                    }
                }
            }
        }
    }
    JOINT RightHip
    {
        OFFSET  -9.783040   0.000000   0.000000
        CHANNELS 3 Zrotation Xrotation Yrotation
        JOINT RightKnee
        {
            OFFSET   0.000047 -41.789100  -0.000896
            CHANNELS 3 Zrotation Xrotation Yrotation
            JOINT RightAnkle
            {
                OFFSET  -0.000117 -41.133300  -0.000248
                CHANNELS 3 Zrotation Xrotation Yrotation
                JOINT RightToe
                {
                    OFFSET   0.000000  -6.358970  14.674500
                    CHANNELS 3 Zrotation Xrotation Yrotation
                    End Site
                    {
                        OFFSET   0.000000   0.000000   3.913200
                    }
                }
            }
        }
    }
}
MOTION
Frames: 6
Frame Time:   0.016667
  5.540540  89.286500   2.748850   4.231630 -18.270600  20.681600   0.283133   7.405630   4.722060  -0.059489  14.807900   9.528000   1.050860  -3.320640   0.059268   1.742210  -6.726540  -5.391850   0.335209  -8.442100  -9.528010 -46.900200 -38.202800 -94.714400  11.512300 -22.618700 -22.800800   6.742220  -0.721087  -4.497230  39.356700  46.072600 -80.895900 -41.377300   0.004329   0.003945 -16.808200   0.004024   0.003269 -89.023300   4.995120  -0.094151 -75.712800   0.014648  -0.047909 -56.784600   0.036059  -0.011211 -80.367500  -0.012124  -0.045005 -80.374500   0.015232  -0.059756 -60.280900   0.044184  -0.013909 -82.261600  -4.917360   0.620619 -82.303000   0.017884  -0.059925 -61.727200   0.045577  -0.011092 -89.033600 -10.043700   0.142521 -110.000000  -0.003118   0.001719 -80.020600  -0.003463  -0.002874  -6.792630 -10.734500   4.674170  31.134600 -31.472900  89.443900 -21.869400  -6.985590  16.202700  -9.651070  -7.288910   3.508480 -22.593800  24.165800  58.538500  63.250500  -0.022481  -0.057691  35.686200  -0.033032  -0.021829  88.996000   5.002960   0.089200  86.725300   0.009651   0.010292  65.044000   0.008038  -0.001113  88.913500  -0.007455   0.006637  89.282400   0.014570   0.011116  66.961700   0.010091   0.001733  89.259100  -5.009470  -0.059151  89.747300   0.012613   0.011512  67.310500   0.010121  -0.000252  88.985200  -9.997490  -0.173312 110.000000  -0.003505  -0.001356  80.000000  -0.000592   0.000702  -1.611490  18.699800  -2.749160   4.629920   6.940870  -4.835250  -5.891220  -6.093520  -2.950140   0.000000   0.000000   0.000000  -2.656890  15.564900  -6.782930   0.822315  18.875700 -18.568400   2.363410  -6.137460  -6.833600  -0.000000   0.000000   0.000000
  5.570050  89.294400   2.753450   4.038650 -18.325200  20.099200   0.282551   7.439820   4.641100  -0.049613  14.877900   9.364980   1.054130  -3.340840   0.059283   1.748550  -6.767520  -5.480310   0.216500  -8.452720  -9.446440 -46.066100 -38.016200 -93.626900  11.872100 -21.779700 -22.249800   6.348600   0.816541  -3.779990  38.725700  45.297500 -80.552600 -40.850500   0.003989   0.003521 -16.279700   0.003557   0.003198 -88.365100   4.967420  -0.177909 -73.545400   0.019081  -0.065229 -55.159100   0.047687  -0.017952 -77.895100   0.019273  -0.072460 -77.887000   0.018681  -0.080563 -58.415400   0.058003  -0.022270 -79.818800  -4.802370   0.796250 -79.848900   0.021069  -0.080624 -59.886700   0.059510  -0.019275 -87.382900 -10.057700   0.409718 -110.000000  -0.003070   0.001727 -80.041200  -0.003400  -0.002738  -6.541430 -10.499500   4.851890  30.110500 -30.830300  88.369100 -21.989100  -7.173170  16.209200  -9.309990  -7.478130   3.430050 -24.149700  25.096300  60.268000  58.881700   0.005764  -0.039279  32.981500  -0.011998  -0.030464  88.996000   5.003030   0.089219  86.058900   0.009976   0.010555  64.544200   0.008041  -0.001155  88.302600  -0.014699   0.008974  88.107900   0.013928   0.014145  66.080900   0.011979   0.001825  88.707900  -5.015870  -0.102588  88.497000   0.012173   0.017131  66.372800   0.014322  -0.000212  88.985200  -9.997480  -0.173307 110.000000  -0.003465  -0.001374  80.000000  -0.000547   0.000652  -1.572410  18.821400  -2.710090   4.524590   6.850680  -4.578650  -5.804760  -6.135200  -2.685190   0.000000   0.000000  -0.000000  -2.680340  15.500100  -6.703180   0.706397  18.883300 -18.209400   2.391720  -6.117930  -6.678400  -0.000000   0.000000   0.000000
  5.589090  89.304900   2.764870   3.858340 -18.378900  19.550500   0.289195   7.474140   4.579210  -0.026098  14.947200   9.239840   1.053450  -3.373280   0.059206   1.755010  -6.833150  -5.690950   0.053683  -8.421680  -9.509660 -45.065000 -37.833900 -92.383800  12.320300 -20.887500 -21.575400   6.056020   2.171240  -2.994920  38.238300  44.531800 -80.239300 -40.303800   0.003940   0.003256 -15.702700   0.003434   0.003068 -86.824700   4.945660  -0.365122 -71.339500   0.026435  -0.082135 -53.504700   0.060364  -0.022306 -75.440500  -0.113513  -0.049851 -75.428400   0.021016  -0.095310 -56.571500   0.067155  -0.029141 -77.366600  -4.810820   0.996168 -77.403100   0.022747  -0.094499 -58.052300   0.068081  -0.025977 -84.746100 -10.036700   0.860372 -109.949000  -0.003045   0.001726 -80.033800   0.009907   0.007916  -6.269210 -10.227500   4.930680  28.964200 -30.168500  87.139600 -22.123200  -7.270750  16.327100  -8.788280  -7.617850   3.338500 -25.341700  25.768300  61.558600  55.889500   0.009478  -0.050303  30.927600  -0.013737  -0.049218  88.996000   5.003090   0.089228  85.814000   0.010299   0.010797  64.360500   0.008025  -0.001194  87.510200  -0.021168   0.013172  87.312200   0.013301   0.020913  65.484100   0.017371   0.001921  87.783800  -5.020300  -0.179121  87.570200   0.011739   0.025797  65.677600   0.020353  -0.000165  88.993500  -9.997480  -0.173304 110.000000  -0.003428  -0.001397  80.000000  -0.000492   0.000597  -1.518760  18.941100  -2.698630   4.415190   6.755600  -4.320540  -5.733600  -6.172250  -2.429330  -0.000000   0.000000   0.000000  -2.688370  15.458200  -6.677710   0.593594  18.849400 -17.865500   2.395020  -6.097080  -6.505360   0.000000   0.000000  -0.000000
  5.595390  89.315900   2.780420   3.666900 -18.435700  18.986700   0.301118   7.517810   4.531650  -0.004021  15.035700   9.142890   1.048490  -3.416920   0.059010   1.739990  -6.921590  -5.947330  -0.116633  -8.359200  -9.572080 -43.915500 -37.641600 -90.991600  12.785900 -20.015200 -20.822000   5.766490   3.302420  -2.172120  37.884500  43.831500 -79.972100 -39.757000   0.003926   0.003186 -15.164900   0.003396   0.002949 -84.582400   4.864150  -0.569584 -69.029800   0.031369  -0.092196 -51.772400   0.068179  -0.024398 -72.952200  -0.421193   0.045944 -72.938100   0.022193  -0.102945 -54.703700   0.071713  -0.032906 -74.859900  -4.871380   1.242270 -74.905800   0.023452  -0.101458 -56.179400   0.072150  -0.029646 -81.765400  -9.980730   1.375870 -109.898000  -0.002967   0.001717 -79.982400   0.028906   0.023172  -5.976880  -9.922820   4.972940  27.815100 -29.485700  85.879400 -22.238300  -7.306940  16.535000  -8.168990  -7.697520   3.249230 -26.390000  26.540800  62.816600  53.334600   0.010008  -0.061327  28.801500  -0.015475  -0.062064  88.996000   5.003150   0.089237  85.607900   0.010599   0.011019  64.206000   0.007989  -0.001232  86.484000  -0.026303   0.016042  86.484100   0.012780   0.027551  64.863100   0.023112   0.002020  86.586800  -5.022330  -0.280458  86.600000   0.011495   0.031607  64.949900   0.026046  -0.000114  89.007700  -9.997480  -0.173297 110.000000  -0.003391  -0.001421  80.000000  -0.000435   0.000539  -1.452150  19.079700  -2.674130   4.306790   6.642340  -4.040880  -5.663980  -6.198320  -2.196290   0.000000   0.000000   0.000000  -2.682560  15.441300  -6.658760   0.487737  18.778300 -17.550700   2.379150  -6.074670  -6.302560  -0.000000   0.000000   0.000000
  5.594390  89.326300   2.803250   3.450670 -18.536800  18.362800   0.326577   7.581670   4.499610   0.043460  15.165500   9.076120   1.028650  -3.474550   0.058867   1.694270  -7.038780  -6.205170  -0.268099  -8.284180  -9.567300 -42.553200 -37.444600 -89.415800  13.242500 -19.221800 -19.972700   5.404010   4.049710  -1.328290  37.787000  43.349300 -79.941200 -39.140700   0.003907   0.003092 -14.655800   0.003328   0.002843 -81.602900   4.388060  -0.693437 -66.597300   0.025908  -0.078292 -49.948000   0.057080  -0.021788 -70.374700  -0.877804   0.253467 -70.365300   0.015533  -0.081691 -52.774000   0.053944  -0.028375 -72.237700  -5.103190   1.581850 -72.302400   0.016436  -0.078956 -54.226800   0.054398  -0.025812 -79.187900  -9.889150   1.829720 -110.576000   0.003322  -0.003565 -79.013500   0.038651   0.030454  -5.664000  -9.577860   5.020920  26.762300 -28.795600  84.669800 -22.339700  -7.204360  16.739400  -7.468860  -7.702230   3.173390 -27.702200  27.676600  64.527400  50.362200   0.009005  -0.052049  25.679900  -0.011532  -0.054934  88.996000   5.003210   0.089255  85.160200   0.010909   0.011219  63.870200   0.007942  -0.001266  85.259300  -0.028152   0.015590  85.271600   0.012512   0.029700  63.953700   0.025867   0.002121  85.255600  -5.018810  -0.398157  85.287400   0.011511   0.031021  63.965500   0.028754  -0.000060  89.023700 -10.002900  -0.167064 110.000000  -0.003355  -0.001442  80.000000  -0.000380   0.000481  -1.375340  19.271900  -2.603530   4.203430   6.494470  -3.681410  -5.579040  -6.207400  -2.025080  -0.000000   0.000000   0.000000  -2.651530  15.473800  -6.606580   0.398575  18.664600 -17.303400   2.354550  -6.047570  -6.031040   0.000000   0.000000   0.000000
  5.587410  89.334500   2.828090   3.220800 -18.663600  17.706000   0.364803   7.652950   4.477080   0.120976  15.310900   9.027260   0.986437  -3.533950   0.058330   1.638310  -7.159720  -6.453580  -0.424915  -8.198600  -9.544690 -41.175600 -37.174300 -87.766600  13.652800 -18.505300 -19.121800   5.037150   4.547450  -0.491317  37.682800  42.872200 -79.819800 -38.525000   0.003899   0.003057 -14.222900   0.003264   0.002750 -78.253000   3.791500  -0.812276 -64.039700   0.018270  -0.056909 -48.029800   0.040470  -0.017545 -67.803700  -1.379820   0.513168 -67.803700   0.008873  -0.055531 -50.852800   0.036175  -0.021686 -69.593800  -5.399730   1.958210 -69.683600   0.009419  -0.055065 -52.262700   0.036645  -0.020276 -76.704200  -9.777910   2.262390 -111.253000   0.020110  -0.013202 -77.093800   0.042640   0.035151  -5.342090  -9.214320   5.078320  25.838600 -28.116100  83.547700 -22.432400  -6.940680  16.937900  -6.805620  -7.706860   3.088780 -29.001100  28.925900  66.282900  47.488400   0.007539  -0.035817  22.466500  -0.005204  -0.039802  88.996000   5.003270   0.089273  84.388000   0.011082   0.011404  63.291000   0.007882  -0.001305  83.729800  -0.028416   0.015138  83.729800   0.012430   0.030404  62.797400   0.027720   0.002222  83.658900  -4.998900  -0.536336  83.683200   0.011628   0.029899  62.762400   0.030460   0.000000  89.033900 -10.008400  -0.160839 110.000000  -0.003318  -0.001461  80.000000  -0.000325   0.000417  -1.290590  19.485300  -2.505010   4.104770   6.320710  -3.316690  -5.490420  -6.209210  -1.856480  -0.000000   0.000000  -0.000000  -2.600240  15.526500  -6.540220   0.317726  18.524800 -17.082900   2.324040  -6.022760  -5.731950   0.000000   0.000000   0.000000
